<svg width="16" height="16" viewBox="0 0 16 16" fill="none" xmlns="http://www.w3.org/2000/svg">
<path d="M8 10.6945C8.29455 10.6945 8.53333 10.4503 8.53333 10.1491C8.53333 9.84784 8.29455 9.60364 8 9.60364C7.70545 9.60364 7.46667 9.84784 7.46667 10.1491C7.46667 10.4503 7.70545 10.6945 8 10.6945Z" fill="#2130B8"/>
<path d="M8 8.57816C8.29455 8.57816 8.53333 8.33395 8.53333 8.03271C8.53333 7.73147 8.29455 7.48726 8 7.48726C7.70545 7.48726 7.46667 7.73147 7.46667 8.03271C7.46667 8.33395 7.70545 8.57816 8 8.57816Z" fill="#2130B8"/>
<path d="M8 6.39635C8.29455 6.39635 8.53333 6.15214 8.53333 5.8509C8.53333 5.54965 8.29455 5.30544 8 5.30544C7.70545 5.30544 7.46667 5.54965 7.46667 5.8509C7.46667 6.15214 7.70545 6.39635 8 6.39635Z" fill="#2130B8"/>
<path d="M14.6987 14H1.30133C0.956198 14 0.625199 13.8598 0.381152 13.6102C0.137104 13.3606 0 13.0221 0 12.6691V10.5636C0.00238861 10.3392 0.0824552 10.1229 0.225985 9.95318C0.369514 9.78342 0.56722 9.67118 0.784 9.63636C1.16358 9.57482 1.50881 9.37559 1.75657 9.07513C2.00434 8.77466 2.13807 8.39302 2.13333 8C2.13788 7.60617 2.00339 7.22388 1.75455 6.9233C1.50571 6.62271 1.15922 6.424 0.778667 6.36364C0.562406 6.32869 0.365343 6.21624 0.222696 6.04637C0.0800484 5.87649 0.00111424 5.66028 0 5.43636V3.33091C0 2.97793 0.137104 2.63941 0.381152 2.38981C0.625199 2.14022 0.956198 2 1.30133 2H14.6987C15.0438 2 15.3748 2.14022 15.6188 2.38981C15.8629 2.63941 16 2.97793 16 3.33091V5.43636C15.9987 5.66108 15.919 5.87795 15.7753 6.04793C15.6316 6.21792 15.4332 6.32987 15.216 6.36364C14.8364 6.42518 14.4912 6.62441 14.2434 6.92487C13.9957 7.22534 13.8619 7.60698 13.8667 8C13.8621 8.39383 13.9966 8.77612 14.2454 9.0767C14.4943 9.37729 14.8408 9.576 15.2213 9.63636C15.4371 9.67234 15.6336 9.78509 15.7761 9.95474C15.9185 10.1244 15.9978 10.34 16 10.5636V12.6691C16 13.0221 15.8629 13.3606 15.6188 13.6102C15.3748 13.8598 15.0438 14 14.6987 14ZM1.06667 10.6836V12.6745C1.06667 12.7382 1.09139 12.7992 1.1354 12.8443C1.17941 12.8893 1.2391 12.9145 1.30133 12.9145H14.6987C14.7609 12.9145 14.8206 12.8893 14.8646 12.8443C14.9086 12.7992 14.9333 12.7382 14.9333 12.6745V10.6836C14.3216 10.5668 13.7691 10.2348 13.3715 9.74519C12.9739 9.25558 12.7563 8.63917 12.7563 8.00273C12.7563 7.36628 12.9739 6.74987 13.3715 6.26026C13.7691 5.77065 14.3216 5.43867 14.9333 5.32182V3.33091C14.9333 3.26726 14.9086 3.20621 14.8646 3.1612C14.8206 3.11619 14.7609 3.09091 14.6987 3.09091H1.30133C1.2391 3.09091 1.17941 3.11619 1.1354 3.1612C1.09139 3.20621 1.06667 3.26726 1.06667 3.33091V5.32182C1.67839 5.43867 2.23089 5.77065 2.62848 6.26026C3.02608 6.74987 3.24372 7.36628 3.24372 8.00273C3.24372 8.63917 3.02608 9.25558 2.62848 9.74519C2.23089 10.2348 1.67839 10.5668 1.06667 10.6836Z" fill="#2130B8"/>
</svg>
